<svg width="24" height="22" viewBox="0 0 24 22" fill="none" xmlns="http://www.w3.org/2000/svg">
<path fill-rule="evenodd" clip-rule="evenodd" d="M3.49966 22H20.4997C20.7413 22 20.9484 21.8272 20.9916 21.5894L22.9916 10.5894C23.0474 10.2825 22.8116 10 22.4997 10H1.49966C1.1877 10 0.951917 10.2825 1.00772 10.5894L3.00772 21.5894C3.05095 21.8272 3.25801 22 3.49966 22ZM2.09876 11H21.9005L20.0824 21H3.91694L2.09876 11Z" fill="#632D4F"/>
<path fill-rule="evenodd" clip-rule="evenodd" d="M0 10.5C0 10.7761 0.223858 11 0.5 11H23.5C23.7761 11 24 10.7761 24 10.5V8.5C24 8.22386 23.7761 8 23.5 8H0.5C0.223858 8 0 8.22386 0 8.5V10.5ZM23 10H1V9H23V10Z" fill="#632D4F"/>
<path d="M3.85331 6.85355L9.85331 0.853553C10.0486 0.658291 10.0486 0.341709 9.85331 0.146447C9.65805 -0.0488155 9.34146 -0.0488155 9.1462 0.146447L3.1462 6.14645C2.95094 6.34171 2.95094 6.65829 3.1462 6.85355C3.34146 7.04882 3.65805 7.04882 3.85331 6.85355Z" fill="#632D4F"/>
<path d="M20.8533 6.14645L14.8533 0.146447C14.658 -0.0488155 14.3415 -0.0488155 14.1462 0.146447C13.9509 0.341709 13.9509 0.658291 14.1462 0.853553L20.1462 6.85355C20.3415 7.04882 20.658 7.04882 20.8533 6.85355C21.0486 6.65829 21.0486 6.34171 20.8533 6.14645Z" fill="#632D4F"/>
<path d="M12.9998 12.5V18.5C12.9998 18.7761 13.2236 19 13.4998 19C13.7759 19 13.9998 18.7761 13.9998 18.5V12.5C13.9998 12.2239 13.7759 12 13.4998 12C13.2236 12 12.9998 12.2239 12.9998 12.5Z" fill="#632D4F"/>
<path d="M16.9998 12.5V18.5C16.9998 18.7761 17.2236 19 17.4998 19C17.7759 19 17.9998 18.7761 17.9998 18.5V12.5C17.9998 12.2239 17.7759 12 17.4998 12C17.2236 12 16.9998 12.2239 16.9998 12.5Z" fill="#632D4F"/>
<path d="M9.99976 12.5V18.5C9.99976 18.7761 10.2236 19 10.4998 19C10.7759 19 10.9998 18.7761 10.9998 18.5V12.5C10.9998 12.2239 10.7759 12 10.4998 12C10.2236 12 9.99976 12.2239 9.99976 12.5Z" fill="#632D4F"/>
<path d="M5.99976 12.5V18.5C5.99976 18.7761 6.22361 19 6.49976 19C6.7759 19 6.99976 18.7761 6.99976 18.5V12.5C6.99976 12.2239 6.7759 12 6.49976 12C6.22361 12 5.99976 12.2239 5.99976 12.5Z" fill="#632D4F"/>
</svg>
