<svg width="21" height="21" viewBox="0 0 21 21" fill="none" xmlns="http://www.w3.org/2000/svg">
<path fill-rule="evenodd" clip-rule="evenodd" d="M7.43741 14.8748C11.5447 14.8748 14.8748 11.5447 14.8748 7.43741C14.8748 3.33008 11.5447 0 7.43741 0C3.33008 0 0 3.33008 0 7.43741C0 11.5447 3.33008 14.8748 7.43741 14.8748ZM7.43741 0.875019C11.0615 0.875019 13.9998 3.81336 13.9998 7.43744C13.9998 11.0615 11.0615 13.9999 7.43741 13.9999C3.81333 13.9999 0.87499 11.0615 0.87499 7.43744C0.87499 3.81336 3.81333 0.875019 7.43741 0.875019Z" fill="white"/>
<path d="M12.0771 12.696L20.253 20.8719C20.4239 21.0428 20.7009 21.0428 20.8717 20.8719C21.0426 20.7011 21.0426 20.424 20.8717 20.2532L12.6958 12.0773C12.525 11.9064 12.248 11.9064 12.0771 12.0773C11.9063 12.2481 11.9063 12.5252 12.0771 12.696Z" fill="white"/>
</svg>
