<svg width="14" height="19" viewBox="0 0 14 19" fill="none" xmlns="http://www.w3.org/2000/svg">
<path d="M7.875 5.03125V0.25H0.84375C0.351562 0.25 0 0.636719 0 1.09375V17.4062C0 17.8984 0.351562 18.25 0.84375 18.25H12.6562C13.1133 18.25 13.5 17.8984 13.5 17.4062V5.875H8.71875C8.22656 5.875 7.875 5.52344 7.875 5.03125ZM10.125 13.3281C10.125 13.5742 9.91406 13.75 9.70312 13.75H3.79688C3.55078 13.75 3.375 13.5742 3.375 13.3281V13.0469C3.375 12.8359 3.55078 12.625 3.79688 12.625H9.70312C9.91406 12.625 10.125 12.8359 10.125 13.0469V13.3281ZM10.125 11.0781C10.125 11.3242 9.91406 11.5 9.70312 11.5H3.79688C3.55078 11.5 3.375 11.3242 3.375 11.0781V10.7969C3.375 10.5859 3.55078 10.375 3.79688 10.375H9.70312C9.91406 10.375 10.125 10.5859 10.125 10.7969V11.0781ZM10.125 8.54688V8.82812C10.125 9.07422 9.91406 9.25 9.70312 9.25H3.79688C3.55078 9.25 3.375 9.07422 3.375 8.82812V8.54688C3.375 8.33594 3.55078 8.125 3.79688 8.125H9.70312C9.91406 8.125 10.125 8.33594 10.125 8.54688ZM13.5 4.53906C13.5 4.32812 13.3945 4.11719 13.2539 3.94141L9.80859 0.496094C9.63281 0.355469 9.42188 0.25 9.21094 0.25H9V4.75H13.5V4.53906Z" fill="#282828"/>
</svg>
