<svg width="13" height="12" viewBox="0 0 13 12" fill="none" xmlns="http://www.w3.org/2000/svg">
<path d="M6.8192 11.798C6.73214 11.885 6.62574 11.9286 6.5 11.9286C6.37426 11.9286 6.26786 11.885 6.1808 11.798L1.65402 7.4308C1.60565 7.39211 1.53795 7.32924 1.45089 7.24219C1.36868 7.15513 1.23568 6.99795 1.0519 6.77065C0.868118 6.5385 0.703683 6.30153 0.558594 6.05971C0.413504 5.81789 0.282924 5.5253 0.166853 5.18192C0.0556176 4.83854 0 4.50484 0 4.1808C0 3.11682 0.307106 2.28497 0.921317 1.68527C1.53553 1.08557 2.3843 0.785714 3.46763 0.785714C3.76749 0.785714 4.07217 0.838913 4.3817 0.945312C4.69606 1.04687 4.98624 1.18713 5.25223 1.36607C5.52307 1.54018 5.75521 1.70461 5.94866 1.85937C6.14211 2.01414 6.32589 2.17857 6.5 2.35268C6.67411 2.17857 6.85789 2.01414 7.05134 1.85937C7.24479 1.70461 7.47452 1.54018 7.74051 1.36607C8.01135 1.18713 8.30153 1.04687 8.61105 0.945312C8.92541 0.838913 9.23252 0.785714 9.53237 0.785714C10.6157 0.785714 11.4645 1.08557 12.0787 1.68527C12.6929 2.28497 13 3.11682 13 4.1808C13 5.24963 12.4462 6.3378 11.3387 7.44531L6.8192 11.798Z" fill="#FF9012"/>
</svg>
